<mxfile host="app.diagrams.net" modified="2024-02-20T20:58:08.446Z" agent="Mozilla/5.0 (Windows NT 10.0; Win64; x64) AppleWebKit/537.36 (KHTML, like Gecko) Chrome/121.0.0.0 Safari/537.36 Edg/121.0.0.0" etag="qKx0MVc_ydaB21yIJYoo" version="23.1.5" type="google">
  <diagram name="Страница — 1" id="7RUfhpWokUZlxbfUECD9">
    <mxGraphModel grid="1" page="1" gridSize="10" guides="1" tooltips="1" connect="1" arrows="1" fold="1" pageScale="1" pageWidth="827" pageHeight="1169" math="0" shadow="0">
      <root>
        <mxCell id="0" />
        <mxCell id="1" parent="0" />
        <mxCell id="E8bbPlfSSyInOrgIhCZK-62" value="&lt;font style=&quot;font-size: 18px;&quot;&gt;CRM системы Амбассадоры ЯП&lt;/font&gt;" style="shape=rect;html=1;verticalAlign=top;fontStyle=1;whiteSpace=wrap;align=center;" vertex="1" parent="1">
          <mxGeometry x="160" y="-140" width="1460" height="880" as="geometry" />
        </mxCell>
        <mxCell id="E8bbPlfSSyInOrgIhCZK-1" value="Комьюнити-менеджер" style="shape=umlActor;verticalLabelPosition=bottom;verticalAlign=top;html=1;outlineConnect=0;" vertex="1" parent="1">
          <mxGeometry x="-60" y="230" width="30" height="60" as="geometry" />
        </mxCell>
        <mxCell id="E8bbPlfSSyInOrgIhCZK-8" value="&amp;lt;&amp;lt;extend&amp;gt;&amp;gt;" style="edgeStyle=none;html=1;startArrow=open;endArrow=none;startSize=12;verticalAlign=bottom;dashed=1;labelBackgroundColor=none;rounded=0;entryX=0;entryY=0.667;entryDx=0;entryDy=0;exitX=0.984;exitY=0.288;exitDx=0;exitDy=0;entryPerimeter=0;exitPerimeter=0;" edge="1" parent="1" source="E8bbPlfSSyInOrgIhCZK-10" target="E8bbPlfSSyInOrgIhCZK-12">
          <mxGeometry width="160" relative="1" as="geometry">
            <mxPoint x="562" y="172" as="sourcePoint" />
            <mxPoint x="665" y="130" as="targetPoint" />
          </mxGeometry>
        </mxCell>
        <mxCell id="E8bbPlfSSyInOrgIhCZK-9" value="&amp;lt;&amp;lt;extend&amp;gt;&amp;gt;" style="edgeStyle=none;html=1;startArrow=open;endArrow=none;startSize=12;verticalAlign=bottom;dashed=1;labelBackgroundColor=none;rounded=0;entryX=0;entryY=0.5;entryDx=0;entryDy=0;exitX=1;exitY=0.5;exitDx=0;exitDy=0;" edge="1" parent="1" source="E8bbPlfSSyInOrgIhCZK-12" target="E8bbPlfSSyInOrgIhCZK-13">
          <mxGeometry width="160" relative="1" as="geometry">
            <mxPoint x="785" y="130" as="sourcePoint" />
            <mxPoint x="872" y="97.03999999999996" as="targetPoint" />
          </mxGeometry>
        </mxCell>
        <mxCell id="E8bbPlfSSyInOrgIhCZK-10" value="просмотреть список кандидатов" style="shape=ellipse;html=1;strokeWidth=3;fontStyle=1;whiteSpace=wrap;align=center;perimeter=ellipsePerimeter;" vertex="1" parent="1">
          <mxGeometry x="415" y="70" width="130" height="60" as="geometry" />
        </mxCell>
        <mxCell id="E8bbPlfSSyInOrgIhCZK-11" value="войти в систему" style="shape=ellipse;html=1;strokeWidth=3;fontStyle=1;whiteSpace=wrap;align=center;perimeter=ellipsePerimeter;" vertex="1" parent="1">
          <mxGeometry x="305" y="-20" width="120" height="60" as="geometry" />
        </mxCell>
        <mxCell id="E8bbPlfSSyInOrgIhCZK-12" value="просмотр данных кандидата" style="shape=ellipse;html=1;strokeWidth=3;fontStyle=1;whiteSpace=wrap;align=center;perimeter=ellipsePerimeter;" vertex="1" parent="1">
          <mxGeometry x="635" y="20" width="120" height="60" as="geometry" />
        </mxCell>
        <mxCell id="E8bbPlfSSyInOrgIhCZK-13" value="изменить статус кандидата" style="shape=ellipse;html=1;strokeWidth=3;fontStyle=1;whiteSpace=wrap;align=center;perimeter=ellipsePerimeter;" vertex="1" parent="1">
          <mxGeometry x="885" y="-10" width="120" height="60" as="geometry" />
        </mxCell>
        <mxCell id="E8bbPlfSSyInOrgIhCZK-14" value="просмотреть список амбассадоров" style="shape=ellipse;html=1;strokeWidth=3;fontStyle=1;whiteSpace=wrap;align=center;perimeter=ellipsePerimeter;" vertex="1" parent="1">
          <mxGeometry x="430" y="180" width="120" height="60" as="geometry" />
        </mxCell>
        <mxCell id="E8bbPlfSSyInOrgIhCZK-15" value="сортировать список амбассадоров" style="shape=ellipse;html=1;strokeWidth=3;fontStyle=1;whiteSpace=wrap;align=center;perimeter=ellipsePerimeter;" vertex="1" parent="1">
          <mxGeometry x="715" y="80" width="120" height="60" as="geometry" />
        </mxCell>
        <mxCell id="E8bbPlfSSyInOrgIhCZK-16" value="фильтровать список амбассадоров" style="shape=ellipse;html=1;strokeWidth=3;fontStyle=1;whiteSpace=wrap;align=center;perimeter=ellipsePerimeter;" vertex="1" parent="1">
          <mxGeometry x="645" y="160" width="120" height="60" as="geometry" />
        </mxCell>
        <mxCell id="E8bbPlfSSyInOrgIhCZK-17" value="найти амбассадора" style="shape=ellipse;html=1;strokeWidth=3;fontStyle=1;whiteSpace=wrap;align=center;perimeter=ellipsePerimeter;" vertex="1" parent="1">
          <mxGeometry x="725" y="230" width="120" height="60" as="geometry" />
        </mxCell>
        <mxCell id="E8bbPlfSSyInOrgIhCZK-18" value="&amp;lt;&amp;lt;extend&amp;gt;&amp;gt;" style="edgeStyle=none;html=1;startArrow=open;endArrow=none;startSize=12;verticalAlign=bottom;dashed=1;labelBackgroundColor=none;rounded=0;exitX=0.833;exitY=0.05;exitDx=0;exitDy=0;exitPerimeter=0;entryX=0;entryY=0.5;entryDx=0;entryDy=0;" edge="1" parent="1" source="E8bbPlfSSyInOrgIhCZK-14" target="E8bbPlfSSyInOrgIhCZK-15">
          <mxGeometry width="160" relative="1" as="geometry">
            <mxPoint x="535" y="200" as="sourcePoint" />
            <mxPoint x="695" y="200" as="targetPoint" />
          </mxGeometry>
        </mxCell>
        <mxCell id="E8bbPlfSSyInOrgIhCZK-19" value="&amp;lt;&amp;lt;extend&amp;gt;&amp;gt;" style="edgeStyle=none;html=1;startArrow=open;endArrow=none;startSize=12;verticalAlign=bottom;dashed=1;labelBackgroundColor=none;rounded=0;exitX=1;exitY=0.5;exitDx=0;exitDy=0;entryX=0.012;entryY=0.729;entryDx=0;entryDy=0;entryPerimeter=0;" edge="1" parent="1" source="E8bbPlfSSyInOrgIhCZK-14" target="E8bbPlfSSyInOrgIhCZK-16">
          <mxGeometry width="160" relative="1" as="geometry">
            <mxPoint x="535" y="200" as="sourcePoint" />
            <mxPoint x="695" y="200" as="targetPoint" />
          </mxGeometry>
        </mxCell>
        <mxCell id="E8bbPlfSSyInOrgIhCZK-20" value="&amp;lt;&amp;lt;extend&amp;gt;&amp;gt;" style="edgeStyle=none;html=1;startArrow=open;endArrow=none;startSize=12;verticalAlign=bottom;dashed=1;labelBackgroundColor=none;rounded=0;exitX=1;exitY=1;exitDx=0;exitDy=0;" edge="1" parent="1" source="E8bbPlfSSyInOrgIhCZK-14" target="E8bbPlfSSyInOrgIhCZK-17">
          <mxGeometry width="160" relative="1" as="geometry">
            <mxPoint x="537" y="301" as="sourcePoint" />
            <mxPoint x="695" y="200" as="targetPoint" />
          </mxGeometry>
        </mxCell>
        <mxCell id="E8bbPlfSSyInOrgIhCZK-21" value="создать новую рассылку" style="shape=ellipse;html=1;strokeWidth=3;fontStyle=1;whiteSpace=wrap;align=center;perimeter=ellipsePerimeter;" vertex="1" parent="1">
          <mxGeometry x="430" y="270" width="120" height="60" as="geometry" />
        </mxCell>
        <mxCell id="E8bbPlfSSyInOrgIhCZK-22" value="отправить рассылку" style="shape=ellipse;html=1;strokeWidth=3;fontStyle=1;whiteSpace=wrap;align=center;perimeter=ellipsePerimeter;" vertex="1" parent="1">
          <mxGeometry x="765" y="320" width="120" height="60" as="geometry" />
        </mxCell>
        <mxCell id="E8bbPlfSSyInOrgIhCZK-23" value="&amp;lt;&amp;lt;extend&amp;gt;&amp;gt;" style="edgeStyle=none;html=1;startArrow=open;endArrow=none;startSize=12;verticalAlign=bottom;dashed=1;labelBackgroundColor=none;rounded=0;exitX=1;exitY=0.5;exitDx=0;exitDy=0;entryX=-0.012;entryY=0.357;entryDx=0;entryDy=0;entryPerimeter=0;" edge="1" parent="1" source="E8bbPlfSSyInOrgIhCZK-21" target="E8bbPlfSSyInOrgIhCZK-22">
          <mxGeometry width="160" relative="1" as="geometry">
            <mxPoint x="565" y="310" as="sourcePoint" />
            <mxPoint x="725" y="310" as="targetPoint" />
          </mxGeometry>
        </mxCell>
        <mxCell id="E8bbPlfSSyInOrgIhCZK-24" value="создать отложенную рассылку" style="shape=ellipse;html=1;strokeWidth=3;fontStyle=1;whiteSpace=wrap;align=center;perimeter=ellipsePerimeter;" vertex="1" parent="1">
          <mxGeometry x="725" y="420" width="120" height="60" as="geometry" />
        </mxCell>
        <mxCell id="E8bbPlfSSyInOrgIhCZK-25" value="&amp;lt;&amp;lt;extend&amp;gt;&amp;gt;" style="edgeStyle=none;html=1;startArrow=open;endArrow=none;startSize=12;verticalAlign=bottom;dashed=1;labelBackgroundColor=none;rounded=0;exitX=0.988;exitY=0.769;exitDx=0;exitDy=0;entryX=0;entryY=0.5;entryDx=0;entryDy=0;exitPerimeter=0;" edge="1" parent="1" source="E8bbPlfSSyInOrgIhCZK-21" target="E8bbPlfSSyInOrgIhCZK-24">
          <mxGeometry width="160" relative="1" as="geometry">
            <mxPoint x="565" y="310" as="sourcePoint" />
            <mxPoint x="725" y="310" as="targetPoint" />
          </mxGeometry>
        </mxCell>
        <mxCell id="E8bbPlfSSyInOrgIhCZK-26" value="посмотреть истоию сообщений" style="shape=ellipse;html=1;strokeWidth=3;fontStyle=1;whiteSpace=wrap;align=center;perimeter=ellipsePerimeter;" vertex="1" parent="1">
          <mxGeometry x="1155" y="405" width="140" height="70" as="geometry" />
        </mxCell>
        <mxCell id="E8bbPlfSSyInOrgIhCZK-27" value="получить уведомление от бота о действиях амбассадора" style="shape=ellipse;html=1;strokeWidth=3;fontStyle=1;whiteSpace=wrap;align=center;perimeter=ellipsePerimeter;" vertex="1" parent="1">
          <mxGeometry x="290" y="515" width="150" height="80" as="geometry" />
        </mxCell>
        <mxCell id="E8bbPlfSSyInOrgIhCZK-28" value="обработать уведомление от бота" style="shape=ellipse;html=1;strokeWidth=3;fontStyle=1;whiteSpace=wrap;align=center;perimeter=ellipsePerimeter;" vertex="1" parent="1">
          <mxGeometry x="515" y="620" width="120" height="60" as="geometry" />
        </mxCell>
        <mxCell id="E8bbPlfSSyInOrgIhCZK-29" value="посмотреть данные амбассадора" style="shape=ellipse;html=1;strokeWidth=3;fontStyle=1;whiteSpace=wrap;align=center;perimeter=ellipsePerimeter;" vertex="1" parent="1">
          <mxGeometry x="935" y="190" width="120" height="60" as="geometry" />
        </mxCell>
        <mxCell id="E8bbPlfSSyInOrgIhCZK-30" value="редактировать данные амбассадора" style="shape=ellipse;html=1;strokeWidth=3;fontStyle=1;whiteSpace=wrap;align=center;perimeter=ellipsePerimeter;" vertex="1" parent="1">
          <mxGeometry x="1185" y="-30" width="120" height="60" as="geometry" />
        </mxCell>
        <mxCell id="E8bbPlfSSyInOrgIhCZK-31" value="редактировать статус амбассадора" style="shape=ellipse;html=1;strokeWidth=3;fontStyle=1;whiteSpace=wrap;align=center;perimeter=ellipsePerimeter;" vertex="1" parent="1">
          <mxGeometry x="1315" y="10" width="120" height="60" as="geometry" />
        </mxCell>
        <mxCell id="E8bbPlfSSyInOrgIhCZK-32" value="&amp;lt;&amp;lt;extend&amp;gt;&amp;gt;" style="edgeStyle=none;html=1;startArrow=open;endArrow=none;startSize=12;verticalAlign=bottom;dashed=1;labelBackgroundColor=none;rounded=0;exitX=0.993;exitY=0.376;exitDx=0;exitDy=0;exitPerimeter=0;entryX=0;entryY=0.5;entryDx=0;entryDy=0;" edge="1" parent="1" source="E8bbPlfSSyInOrgIhCZK-17" target="E8bbPlfSSyInOrgIhCZK-29">
          <mxGeometry width="160" relative="1" as="geometry">
            <mxPoint x="685" y="360" as="sourcePoint" />
            <mxPoint x="845" y="360" as="targetPoint" />
          </mxGeometry>
        </mxCell>
        <mxCell id="E8bbPlfSSyInOrgIhCZK-33" value="&amp;lt;&amp;lt;extend&amp;gt;&amp;gt;" style="edgeStyle=none;html=1;startArrow=open;endArrow=none;startSize=12;verticalAlign=bottom;dashed=1;labelBackgroundColor=none;rounded=0;entryX=0;entryY=0.5;entryDx=0;entryDy=0;exitX=0.752;exitY=0.112;exitDx=0;exitDy=0;exitPerimeter=0;" edge="1" parent="1" source="E8bbPlfSSyInOrgIhCZK-29" target="E8bbPlfSSyInOrgIhCZK-30">
          <mxGeometry width="160" relative="1" as="geometry">
            <mxPoint x="835" y="320" as="sourcePoint" />
            <mxPoint x="995" y="320" as="targetPoint" />
            <mxPoint as="offset" />
          </mxGeometry>
        </mxCell>
        <mxCell id="E8bbPlfSSyInOrgIhCZK-34" value="&amp;lt;&amp;lt;extend&amp;gt;&amp;gt;" style="edgeStyle=none;html=1;startArrow=open;endArrow=none;startSize=12;verticalAlign=bottom;dashed=1;labelBackgroundColor=none;rounded=0;entryX=0.017;entryY=0.661;entryDx=0;entryDy=0;entryPerimeter=0;exitX=1;exitY=0;exitDx=0;exitDy=0;" edge="1" parent="1" source="E8bbPlfSSyInOrgIhCZK-29" target="E8bbPlfSSyInOrgIhCZK-31">
          <mxGeometry width="160" relative="1" as="geometry">
            <mxPoint x="855" y="440" as="sourcePoint" />
            <mxPoint x="1015" y="440" as="targetPoint" />
          </mxGeometry>
        </mxCell>
        <mxCell id="E8bbPlfSSyInOrgIhCZK-35" value="отправить персональное сообщение амбассадору" style="shape=ellipse;html=1;strokeWidth=3;fontStyle=1;whiteSpace=wrap;align=center;perimeter=ellipsePerimeter;" vertex="1" parent="1">
          <mxGeometry x="1365" y="80" width="140" height="70" as="geometry" />
        </mxCell>
        <mxCell id="E8bbPlfSSyInOrgIhCZK-36" value="&amp;lt;&amp;lt;extend&amp;gt;&amp;gt;" style="edgeStyle=none;html=1;startArrow=open;endArrow=none;startSize=12;verticalAlign=bottom;dashed=1;labelBackgroundColor=none;rounded=0;entryX=0.017;entryY=0.376;entryDx=0;entryDy=0;entryPerimeter=0;exitX=0.958;exitY=0.308;exitDx=0;exitDy=0;exitPerimeter=0;" edge="1" parent="1" source="E8bbPlfSSyInOrgIhCZK-29" target="E8bbPlfSSyInOrgIhCZK-35">
          <mxGeometry width="160" relative="1" as="geometry">
            <mxPoint x="955" y="380" as="sourcePoint" />
            <mxPoint x="915" y="499.40999999999997" as="targetPoint" />
          </mxGeometry>
        </mxCell>
        <mxCell id="E8bbPlfSSyInOrgIhCZK-37" value="посмотреть деятельность амбассадора" style="shape=ellipse;html=1;strokeWidth=3;fontStyle=1;whiteSpace=wrap;align=center;perimeter=ellipsePerimeter;" vertex="1" parent="1">
          <mxGeometry x="1325" y="170" width="120" height="60" as="geometry" />
        </mxCell>
        <mxCell id="E8bbPlfSSyInOrgIhCZK-38" value="&amp;lt;&amp;lt;extend&amp;gt;&amp;gt;" style="edgeStyle=none;html=1;startArrow=open;endArrow=none;startSize=12;verticalAlign=bottom;dashed=1;labelBackgroundColor=none;rounded=0;exitX=1;exitY=0.5;exitDx=0;exitDy=0;entryX=0;entryY=0.5;entryDx=0;entryDy=0;" edge="1" parent="1" source="E8bbPlfSSyInOrgIhCZK-29" target="E8bbPlfSSyInOrgIhCZK-37">
          <mxGeometry width="160" relative="1" as="geometry">
            <mxPoint x="895" y="499.40999999999997" as="sourcePoint" />
            <mxPoint x="1055" y="499.40999999999997" as="targetPoint" />
          </mxGeometry>
        </mxCell>
        <mxCell id="E8bbPlfSSyInOrgIhCZK-39" value="отметить выполнение гайда" style="shape=ellipse;html=1;strokeWidth=3;fontStyle=1;whiteSpace=wrap;align=center;perimeter=ellipsePerimeter;" vertex="1" parent="1">
          <mxGeometry x="1435" y="240" width="120" height="60" as="geometry" />
        </mxCell>
        <mxCell id="E8bbPlfSSyInOrgIhCZK-40" value="&amp;lt;&amp;lt;extend&amp;gt;&amp;gt;" style="edgeStyle=none;html=1;startArrow=open;endArrow=none;startSize=12;verticalAlign=bottom;dashed=1;labelBackgroundColor=none;rounded=0;entryX=0;entryY=0.333;entryDx=0;entryDy=0;entryPerimeter=0;" edge="1" parent="1" source="E8bbPlfSSyInOrgIhCZK-29" target="E8bbPlfSSyInOrgIhCZK-39">
          <mxGeometry width="160" relative="1" as="geometry">
            <mxPoint x="865" y="499.40999999999997" as="sourcePoint" />
            <mxPoint x="1025" y="499.40999999999997" as="targetPoint" />
          </mxGeometry>
        </mxCell>
        <mxCell id="E8bbPlfSSyInOrgIhCZK-41" value="сформировать заявку логистам на оправку мерчей" style="shape=ellipse;html=1;strokeWidth=3;fontStyle=1;whiteSpace=wrap;align=center;perimeter=ellipsePerimeter;" vertex="1" parent="1">
          <mxGeometry x="1005" y="430" width="130" height="70" as="geometry" />
        </mxCell>
        <mxCell id="E8bbPlfSSyInOrgIhCZK-42" value="посмотреть список отправленных мерчей" style="shape=ellipse;html=1;strokeWidth=3;fontStyle=1;whiteSpace=wrap;align=center;perimeter=ellipsePerimeter;" vertex="1" parent="1">
          <mxGeometry x="1375" y="310" width="140" height="70" as="geometry" />
        </mxCell>
        <mxCell id="E8bbPlfSSyInOrgIhCZK-43" value="посмотреть аналитику и статистику о действиях сообщества" style="shape=ellipse;html=1;strokeWidth=3;fontStyle=1;whiteSpace=wrap;align=center;perimeter=ellipsePerimeter;" vertex="1" parent="1">
          <mxGeometry x="375" y="400" width="170" height="80" as="geometry" />
        </mxCell>
        <mxCell id="E8bbPlfSSyInOrgIhCZK-44" value="сформировать отчет о бюджете на отправку мерчей" style="shape=ellipse;html=1;strokeWidth=3;fontStyle=1;whiteSpace=wrap;align=center;perimeter=ellipsePerimeter;" vertex="1" parent="1">
          <mxGeometry x="645" y="530" width="160" height="80" as="geometry" />
        </mxCell>
        <mxCell id="E8bbPlfSSyInOrgIhCZK-45" value="просмотр отметки о завершении онборгиднга, выполнении гайда" style="shape=ellipse;html=1;strokeWidth=3;fontStyle=1;whiteSpace=wrap;align=center;perimeter=ellipsePerimeter;" vertex="1" parent="1">
          <mxGeometry x="1375" y="410" width="160" height="80" as="geometry" />
        </mxCell>
        <mxCell id="E8bbPlfSSyInOrgIhCZK-46" value="&amp;lt;&amp;lt;extend&amp;gt;&amp;gt;" style="edgeStyle=none;html=1;startArrow=open;endArrow=none;startSize=12;verticalAlign=bottom;dashed=1;labelBackgroundColor=none;rounded=0;exitX=1;exitY=1;exitDx=0;exitDy=0;entryX=0;entryY=0;entryDx=0;entryDy=0;" edge="1" parent="1" source="E8bbPlfSSyInOrgIhCZK-29" target="E8bbPlfSSyInOrgIhCZK-42">
          <mxGeometry width="160" relative="1" as="geometry">
            <mxPoint x="935" y="450" as="sourcePoint" />
            <mxPoint x="1095" y="450" as="targetPoint" />
          </mxGeometry>
        </mxCell>
        <mxCell id="E8bbPlfSSyInOrgIhCZK-47" value="&amp;lt;&amp;lt;extend&amp;gt;&amp;gt;" style="edgeStyle=none;html=1;startArrow=open;endArrow=none;startSize=12;verticalAlign=bottom;dashed=1;labelBackgroundColor=none;rounded=0;entryX=0.211;entryY=0.069;entryDx=0;entryDy=0;entryPerimeter=0;exitX=0.694;exitY=1.014;exitDx=0;exitDy=0;exitPerimeter=0;" edge="1" parent="1" source="E8bbPlfSSyInOrgIhCZK-29" target="E8bbPlfSSyInOrgIhCZK-45">
          <mxGeometry width="160" relative="1" as="geometry">
            <mxPoint x="935" y="450" as="sourcePoint" />
            <mxPoint x="1095" y="450" as="targetPoint" />
          </mxGeometry>
        </mxCell>
        <mxCell id="E8bbPlfSSyInOrgIhCZK-48" value="" style="edgeStyle=none;html=1;endArrow=none;verticalAlign=bottom;rounded=0;entryX=0.189;entryY=0.984;entryDx=0;entryDy=0;entryPerimeter=0;" edge="1" parent="1" target="E8bbPlfSSyInOrgIhCZK-11">
          <mxGeometry width="160" relative="1" as="geometry">
            <mxPoint x="-10" y="230" as="sourcePoint" />
            <mxPoint x="450" y="170" as="targetPoint" />
          </mxGeometry>
        </mxCell>
        <mxCell id="E8bbPlfSSyInOrgIhCZK-49" value="" style="edgeStyle=none;html=1;endArrow=none;verticalAlign=bottom;rounded=0;entryX=0;entryY=0.5;entryDx=0;entryDy=0;" edge="1" parent="1" target="E8bbPlfSSyInOrgIhCZK-10">
          <mxGeometry width="160" relative="1" as="geometry">
            <mxPoint y="250" as="sourcePoint" />
            <mxPoint x="450" y="170" as="targetPoint" />
          </mxGeometry>
        </mxCell>
        <mxCell id="E8bbPlfSSyInOrgIhCZK-50" value="" style="edgeStyle=none;html=1;endArrow=none;verticalAlign=bottom;rounded=0;entryX=-0.012;entryY=0.327;entryDx=0;entryDy=0;entryPerimeter=0;" edge="1" parent="1" target="E8bbPlfSSyInOrgIhCZK-14">
          <mxGeometry width="160" relative="1" as="geometry">
            <mxPoint x="10" y="270" as="sourcePoint" />
            <mxPoint x="450" y="170" as="targetPoint" />
          </mxGeometry>
        </mxCell>
        <mxCell id="E8bbPlfSSyInOrgIhCZK-52" value="" style="edgeStyle=none;html=1;endArrow=none;verticalAlign=bottom;rounded=0;entryX=-0.002;entryY=0.259;entryDx=0;entryDy=0;entryPerimeter=0;" edge="1" parent="1" target="E8bbPlfSSyInOrgIhCZK-21">
          <mxGeometry width="160" relative="1" as="geometry">
            <mxPoint x="30" y="280" as="sourcePoint" />
            <mxPoint x="560" y="380" as="targetPoint" />
          </mxGeometry>
        </mxCell>
        <mxCell id="E8bbPlfSSyInOrgIhCZK-55" value="&amp;lt;&amp;lt;extend&amp;gt;&amp;gt;" style="edgeStyle=none;html=1;startArrow=open;endArrow=none;startSize=12;verticalAlign=bottom;dashed=1;labelBackgroundColor=none;rounded=0;exitX=0.5;exitY=1;exitDx=0;exitDy=0;entryX=0.337;entryY=0.012;entryDx=0;entryDy=0;entryPerimeter=0;" edge="1" parent="1" source="E8bbPlfSSyInOrgIhCZK-29" target="E8bbPlfSSyInOrgIhCZK-41">
          <mxGeometry width="160" relative="1" as="geometry">
            <mxPoint x="1185" y="330" as="sourcePoint" />
            <mxPoint x="1345" y="330" as="targetPoint" />
          </mxGeometry>
        </mxCell>
        <mxCell id="E8bbPlfSSyInOrgIhCZK-57" value="" style="edgeStyle=none;html=1;endArrow=none;verticalAlign=bottom;rounded=0;entryX=0.265;entryY=0;entryDx=0;entryDy=0;entryPerimeter=0;" edge="1" parent="1" target="E8bbPlfSSyInOrgIhCZK-43">
          <mxGeometry width="160" relative="1" as="geometry">
            <mxPoint x="20" y="290" as="sourcePoint" />
            <mxPoint x="210" y="410" as="targetPoint" />
          </mxGeometry>
        </mxCell>
        <mxCell id="E8bbPlfSSyInOrgIhCZK-58" value="&amp;lt;&amp;lt;extend&amp;gt;&amp;gt;" style="edgeStyle=none;html=1;startArrow=open;endArrow=none;startSize=12;verticalAlign=bottom;dashed=1;labelBackgroundColor=none;rounded=0;exitX=0.791;exitY=0.951;exitDx=0;exitDy=0;exitPerimeter=0;" edge="1" parent="1" source="E8bbPlfSSyInOrgIhCZK-43" target="E8bbPlfSSyInOrgIhCZK-44">
          <mxGeometry width="160" relative="1" as="geometry">
            <mxPoint x="485" y="520" as="sourcePoint" />
            <mxPoint x="645" y="520" as="targetPoint" />
          </mxGeometry>
        </mxCell>
        <mxCell id="E8bbPlfSSyInOrgIhCZK-59" value="" style="edgeStyle=none;html=1;endArrow=none;verticalAlign=bottom;rounded=0;entryX=0.275;entryY=0.056;entryDx=0;entryDy=0;entryPerimeter=0;" edge="1" parent="1" target="E8bbPlfSSyInOrgIhCZK-27">
          <mxGeometry width="160" relative="1" as="geometry">
            <mxPoint x="30" y="300" as="sourcePoint" />
            <mxPoint x="230" y="540" as="targetPoint" />
          </mxGeometry>
        </mxCell>
        <mxCell id="E8bbPlfSSyInOrgIhCZK-60" value="&amp;lt;&amp;lt;extend&amp;gt;&amp;gt;" style="edgeStyle=none;html=1;startArrow=open;endArrow=none;startSize=12;verticalAlign=bottom;dashed=1;labelBackgroundColor=none;rounded=0;entryX=0.311;entryY=-0.019;entryDx=0;entryDy=0;entryPerimeter=0;exitX=1;exitY=1;exitDx=0;exitDy=0;" edge="1" parent="1" source="E8bbPlfSSyInOrgIhCZK-27" target="E8bbPlfSSyInOrgIhCZK-28">
          <mxGeometry width="160" relative="1" as="geometry">
            <mxPoint x="385" y="595" as="sourcePoint" />
            <mxPoint x="545" y="595" as="targetPoint" />
          </mxGeometry>
        </mxCell>
        <mxCell id="E8bbPlfSSyInOrgIhCZK-61" value="&amp;lt;&amp;lt;extend&amp;gt;&amp;gt;" style="edgeStyle=none;html=1;startArrow=open;endArrow=none;startSize=12;verticalAlign=bottom;dashed=1;labelBackgroundColor=none;rounded=0;entryX=0.376;entryY=0.039;entryDx=0;entryDy=0;entryPerimeter=0;exitX=0.583;exitY=1;exitDx=0;exitDy=0;exitPerimeter=0;" edge="1" parent="1" source="E8bbPlfSSyInOrgIhCZK-29" target="E8bbPlfSSyInOrgIhCZK-26">
          <mxGeometry width="160" relative="1" as="geometry">
            <mxPoint x="1055" y="360" as="sourcePoint" />
            <mxPoint x="1215" y="360" as="targetPoint" />
          </mxGeometry>
        </mxCell>
      </root>
    </mxGraphModel>
  </diagram>
</mxfile>
